#!OML:ASF I:\salsa\salsa 7_09\Patient 1\Session 1\dancermale.ASF
:FULLY-SPECIFIED
:DEGREES
1752
root 3.21367 16.7134 -4.46638 -278.271 92.851 -285.533
lowerback -2.08514 0.43007 2.33911
upperback -1.462 0.562474 -2.53811
thorax -0.284151 0.266899 -3.91404
lowerneck -9.44117 -4.06306 -1.59314
upperneck 18.7139 -5.13608 0.24532
head 7.34232 -2.45781 -0.111314
rclavicle -2.6339e-015 3.81667e-014
rhumerus -29.4682 37.9095 -85.8741
rradius 92.313
rwrist 47.6433
rhand -5.61285 -2.94051
rfingers 7.12502
rthumb 20.2045 -31.9097
lclavicle -2.6339e-015 3.81667e-014
lhumerus -11.3408 -22.7014 104.077
lradius 74.074
lwrist 77.5222
lhand -3.82071 62.268
lfingers 7.12502
lthumb 21.9261 628.954
rfemur -17.8758 -6.2555 27.6049
rtibia 38.1166
rfoot -29.8613 -20.9725
rtoes 13.0098
lfemur -54.1065 20.9289 -26.3478
ltibia 56.229
lfoot 360.812 4.35054
ltoes 14.0996
1753
root 3.37902 16.7064 -4.44993 -293.369 93.0459 -300.623
lowerback -2.35133 0.3978 2.57958
upperback -1.56858 0.514164 -2.64094
thorax -0.246343 0.241123 -4.15684
lowerneck -9.60988 -4.19872 -2.05827
upperneck 19.3609 -5.27995 0.514699
head 7.60779 -2.5231 0.028075
rclavicle 6.95746e-016 -2.54444e-014
rhumerus -30.9944 36.8558 -85.2436
rradius 93.4461
rwrist 47.4593
rhand -6.2181 -2.78538
rfingers 7.12502
rthumb 19.6227 -31.8151
lclavicle 6.95746e-016 -2.54444e-014
lhumerus -11.4174 -23.3177 104.642
lradius 73.2117
lwrist 76.0918
lhand -3.78338 62.0243
lfingers 7.12502
lthumb 21.962 629.202
rfemur -17.1404 -6.47417 27.5715
rtibia 37.9915
rfoot -30.355 -21.4536
rtoes 13.0825
lfemur -53.9535 22.6307 -28.0096
ltibia 53.5096
lfoot 361.934 5.77725
ltoes 18.7514
1754
root 3.5529 16.6974 -4.43751 -305.143 93.3116 -312.391
lowerback -2.72894 0.311881 2.64171
upperback -1.80167 0.395562 -2.62256
thorax -0.285336 0.178907 -4.17487
lowerneck -9.11265 -4.18992 -2.19939
upperneck 19.6766 -5.18295 0.27409
head 7.6189 -2.5009 -0.00903741
rclavicle 2.18663e-015 -8.74653e-015
rhumerus -32.7245 36.0457 -84.646
rradius 94.5611
rwrist 47.2715
rhand -6.77287 -2.37068
rfingers 7.12502
rthumb 19.0893 -31.4539
lclavicle 2.18663e-015 -8.74653e-015
lhumerus -11.7824 -23.4252 105.397
lradius 72.1687
lwrist 73.8818
lhand -3.86147 61.6647
lfingers 7.12502
lthumb 21.887 629.553
rfemur -16.3839 -6.58406 27.4894
rtibia 37.9074
rfoot -30.8342 -21.9286
rtoes 12.7516
lfemur -53.6168 24.1292 -29.5772
ltibia 51.503
lfoot 363.703 6.28354
ltoes 16.2956
1755
root 3.73646 16.6877 -4.42385 -314.955 93.486 -322.082
lowerback -3.0398 0.404499 2.46236
upperback -1.86896 0.523737 -2.76149
thorax -0.168984 0.24732 -4.21251
lowerneck -9.28579 -4.36362 -1.96028
upperneck 20.2386 -5.39502 0.0169519
head 7.82362 -2.59784 -0.162239
rclavicle 9.44227e-016 -1.03368e-014
rhumerus -34.0268 34.7147 -83.8616
rradius 95.5982
rwrist 47.0958
rhand -6.87111 -2.02652
rfingers 7.12502
rthumb 18.9948 -31.119
lclavicle 9.44227e-016 -1.03368e-014
lhumerus -12.0428 -24.007 105.974
lradius 70.8318
lwrist 71.01
lhand -3.34425 61.487
lfingers 7.12502
lthumb 22.3836 629.79
rfemur -15.4893 -6.64466 27.2428
rtibia 37.912
rfoot -31.2712 -22.4406
rtoes 11.767
lfemur -52.5134 24.9893 -30.3155
ltibia 49.8328
lfoot 365.246 6.78477
ltoes 19.6818
1756
root 3.92488 16.6676 -4.41811 -325.606 93.9413 -332.634
lowerback -3.42089 0.458479 2.31171
upperback -1.87543 0.602398 -2.98079
thorax 0.0453703 0.293455 -4.35006
lowerneck -9.80955 -4.52304 -1.38299
upperneck 20.9654 -5.62095 -0.362594
head 8.13226 -2.68435 -0.425585
rclavicle 8.27441e-015 7.95139e-016
rhumerus -35.177 33.3403 -83.0986
rradius 96.5348
rwrist 46.97
rhand -7.00677 -1.71887
rfingers 7.12502
rthumb 18.8643 -30.8241
lclavicle 8.27441e-015 7.95139e-016
lhumerus -12.2501 -24.7062 106.401
lradius 69.5742
lwrist 69.6378
lhand -3.13176 61.6402
lfingers 7.12502
lthumb 22.5875 629.661
rfemur -14.8524 -7.16263 26.8873
rtibia 38.3122
rfoot -31.7146 -22.9766
rtoes 9.90022
lfemur -50.9959 24.772 -30.3408
ltibia 48.8535
lfoot 364.619 4.57351
ltoes 21.9364
1757
root 4.12128 16.6404 -4.4062 -333.344 94.4751 -340.12
lowerback -3.69101 0.36803 2.00459
upperback -1.99048 0.493278 -3.01768
thorax 0.0661964 0.241814 -4.21702
lowerneck -10.005 -4.59127 -1.24279
upperneck 21.7895 -5.65062 -0.660443
head 8.4315 -2.69887 -0.566314
rclavicle -9.44227e-016 -1.11319e-014
rhumerus -36.5563 32.6895 -82.4838
rradius 97.4387
rwrist 46.8182
rhand -7.29357 -1.29668
rfingers 7.12502
rthumb 18.5885 -30.4285
lclavicle -9.44227e-016 -1.11319e-014
lhumerus -12.7349 -24.7381 106.902
lradius 68.8088
lwrist 70.3817
lhand -4.50278 61.8095
lfingers 7.12502
lthumb 21.2711 629.338
rfemur -14.2452 -7.8004 26.5094
rtibia 39.1559
rfoot -32.1833 -23.3934
rtoes 7.55205
lfemur -49.0573 24.0827 -29.8153
ltibia 48.6578
lfoot 361.943 4.30704
ltoes 11.7334
1758
root 4.31167 16.6078 -4.39569 -340.559 95.175 -347.012
lowerback -3.83348 0.0461851 1.58253
upperback -2.23811 0.0789265 -2.90341
thorax -0.145088 0.0341152 -3.87478
lowerneck -9.61298 -4.49276 -1.38969
upperneck 22.3985 -5.36462 -1.05535
head 8.55828 -2.59846 -0.641898
rclavicle -9.47333e-015 0
rhumerus -37.9981 32.8877 -81.9553
rradius 98.3147
rwrist 46.3804
rhand -7.44932 -0.830188
rfingers 7.12502
rthumb 18.4386 -29.9763
lclavicle -9.47333e-015 0
lhumerus -13.3575 -24.0102 107.415
lradius 68.2026
lwrist 71.4823
lhand -5.59593 61.9874
lfingers 7.12502
lthumb 20.2207 629.045
rfemur -13.8001 -8.66629 26.0113
rtibia 40.5873
rfoot -32.3903 -23.6858
rtoes 4.19477
lfemur -46.6992 22.3678 -28.7572
ltibia 47.7914
lfoot 359.138 3.29427
ltoes 4.74372
1759
root 4.48789 16.5726 -4.3907 -347.605 96.1242 -353.735
lowerback -3.87819 -0.336391 1.11229
upperback -2.40538 -0.412979 -2.85871
thorax -0.326402 -0.209143 -3.57975
lowerneck -9.32208 -4.38275 -1.47932
upperneck 22.8322 -5.09644 -1.36679
head 8.64614 -2.49812 -0.701848
rclavicle -1.41572e-014 1.11319e-014
rhumerus -39.0071 33.1478 -81.3681
rradius 98.9403
rwrist 45.8571
rhand -7.51845 -0.367366
rfingers 7.12502
rthumb 18.3721 -29.5198
lclavicle -1.41572e-014 1.11319e-014
lhumerus -13.7283 -23.5703 107.723
lradius 67.7906
lwrist 72.7234
lhand -6.57045 62.2122
lfingers 7.12502
lthumb 19.2839 628.724
rfemur -13.6555 -9.88126 25.2944
rtibia 42.6628
rfoot -31.9892 -23.874
rtoes -0.543663
lfemur -44.4783 20.1963 -28.139
ltibia 46.7136
lfoot 356.731 2.84136
ltoes -0.0360257
1760
root 4.6497 16.5398 -4.39769 -355.641 96.952 -361.196
lowerback -3.47179 -0.555261 0.600682
upperback -2.38483 -0.686928 -3.09479
thorax -0.548091 -0.342199 -3.53997
lowerneck -9.55437 -4.31978 -1.40298
upperneck 23.3514 -4.96654 -1.50091
head 8.86124 -2.4343 -0.759498
rclavicle 5.97596e-015 -1.66979e-014
rhumerus -39.7193 32.9347 -80.9586
rradius 99.2556
rwrist 45.8492
rhand -7.89905 -0.0214517
rfingers 7.12502
rthumb 18.006 -29.208
lclavicle 5.97596e-015 -1.66979e-014
lhumerus -13.8228 -23.766 107.78
lradius 67.597
lwrist 73.9216
lhand -7.32607 62.4049
lfingers 7.12502
lthumb 18.5572 628.46
rfemur -13.6282 -11.2151 23.9763
rtibia 45.4921
rfoot -30.9966 -23.541
rtoes -4.61356
lfemur -42.1928 18.1223 -28.2451
ltibia 45.7141
lfoot 354.737 3.48429
ltoes -3.47491
1761
root 4.80525 16.5099 -4.40344 -364.018 97.6876 -369.132
lowerback -3.25999 -0.657875 -0.059481
upperback -2.28113 -0.796815 -3.50519
thorax -0.563906 -0.387086 -3.59331
lowerneck -9.90631 -4.32062 -1.54661
upperneck 23.8049 -4.9579 -1.34216
head 9.09315 -2.41897 -0.69676
rclavicle 1.38652e-014 -2.06736e-014
rhumerus -40.2902 32.4643 -80.8314
rradius 99.3594
rwrist 46.2195
rhand -8.99124 0.44712
rfingers 7.12502
rthumb 16.9549 -28.8329
lclavicle 1.38652e-014 -2.06736e-014
lhumerus -13.7797 -24.1955 107.701
lradius 67.756
lwrist 75.5764
lhand -8.00337 62.3283
lfingers 7.12502
lthumb 17.9056 628.476
rfemur -14.1771 -12.2936 22.3121
rtibia 49.0826
rfoot -29.4087 -22.6431
rtoes -6.38768
lfemur -40.555 16.6872 -29.1285
ltibia 45.1067
lfoot 353.163 4.54169
ltoes -2.42699
1762
root 4.93458 16.488 -4.3978 -368.61 98.4844 -373.855
lowerback -3.60466 -0.740195 -0.502528
upperback -2.30252 -0.871702 -3.82974
thorax -0.396528 -0.4144 -3.68655
lowerneck -9.79148 -4.2847 -1.4281
upperneck 23.7795 -4.89201 -1.48761
head 9.05491 -2.39102 -0.755017
rclavicle -6.26172e-015 -3.97569e-015
rhumerus -40.5992 31.9992 -80.7787
rradius 99.249
rwrist 46.4793
rhand -10.0577 0.983871
rfingers 7.12502
rthumb 15.9281 -28.3811
lclavicle -6.26172e-015 -3.97569e-015
lhumerus -13.6624 -24.4908 107.629
lradius 68.0474
lwrist 76.9713
lhand -8.85703 62.5616
lfingers 7.12502
lthumb 17.0841 628.17
rfemur -16.0168 -13.0111 21.2146
rtibia 53.4488
rfoot -27.1004 -21.2662
rtoes -5.05154
lfemur -40.1316 15.7497 -30.0503
ltibia 44.9837
lfoot 351.945 5.20488
ltoes 3.47043
1763
root 5.02468 16.4805 -4.37596 -370.121 99.1406 -375.521
lowerback -3.59954 -0.751969 -0.573256
upperback -2.40783 -0.878141 -4.06678
thorax -0.511317 -0.415277 -3.89268
lowerneck -9.68895 -4.30096 -1.35284
upperneck 23.8413 -4.89449 -1.59873
head 9.05165 -2.39349 -0.803301
rclavicle -1.82882e-014 -4.29375e-014
rhumerus -40.8503 31.4622 -80.8489
rradius 99.0143
rwrist 46.7135
rhand -10.0502 1.23013
rfingers 7.12502
rthumb 15.9353 -28.1343
lclavicle -1.82882e-014 -4.29375e-014
lhumerus -13.6066 -24.6455 107.595
lradius 68.5688
lwrist 77.2755
lhand -9.34367 62.5379
lfingers 7.12502
lthumb 16.6156 628.153
rfemur -18.5168 -13.3502 20.7315
rtibia 58.3578
rfoot -24.0578 -19.338
rtoes 0.119261
lfemur -39.7896 14.8011 -30.3277
ltibia 44.7673
lfoot 351.029 5.54301
ltoes 3.26661
1764
root 5.10611 16.4784 -4.33446 -371.156 99.5011 -376.538
lowerback -3.36414 -0.636782 -0.591523
upperback -2.46233 -0.724941 -4.30997
thorax -0.69287 -0.338065 -4.12825
lowerneck -9.67041 -4.34491 -1.28612
upperneck 23.98 -4.96689 -1.56469
head 9.09498 -2.41337 -0.811785
rclavicle -5.46658e-016 -4.13472e-014
rhumerus -41.1674 30.7789 -81.114
rradius 98.7473
rwrist 47.1126
rhand -9.4887 1.35063
rfingers 7.12502
rthumb 16.476 -27.9698
lclavicle -5.46658e-016 -4.13472e-014
lhumerus -13.7173 -24.8679 107.546
lradius 69.362
lwrist 76.6977
lhand -9.6647 62.6935
lfingers 7.12502
lthumb 16.3065 627.972
rfemur -21.0352 -13.2214 20.451
rtibia 63.2857
rfoot -20.686 -17.248
rtoes 6.54075
lfemur -39.0969 14.2339 -30.1583
ltibia 44.2539
lfoot 350.336 5.54372
ltoes 1.88765
1765
root 5.16926 16.4752 -4.29007 -372.802 99.7388 -378.202
lowerback -3.11605 -0.49633 -0.688044
upperback -2.50217 -0.536205 -4.56021
thorax -0.862074 -0.241638 -4.32775
lowerneck -9.66791 -4.38637 -1.28247
upperneck 24.1414 -5.03743 -1.46976
head 9.1532 -2.43102 -0.789732
rclavicle 4.99446e-015 -6.59965e-014
rhumerus -41.3292 30.2187 -81.4358
rradius 98.3798
rwrist 47.6326
rhand -9.13987 1.37685
rfingers 7.12502
rthumb 16.8118 -27.9153
lclavicle 4.99446e-015 -6.59965e-014
lhumerus -13.786 -24.9349 107.408
lradius 70.3436
lwrist 76.4481
lhand -10.1611 63.0226
lfingers 7.12502
lthumb 15.8285 627.604
rfemur -23.6759 -12.804 20.0515
rtibia 68.054
rfoot -17.5375 -15.1691
rtoes 10.963
lfemur -38.5151 13.8843 -30.1287
ltibia 43.8344
lfoot 349.909 5.39738
ltoes 0.0952844
